<svg width="32" height="33" viewBox="0 0 32 33" fill="none" xmlns="http://www.w3.org/2000/svg">
<g clip-path="url(#clip0_1_2735)">
<path d="M16 3.1671C19.5724 3.17885 22.9917 4.61912 25.4957 7.16698H21.3331C20.5968 7.16698 19.9999 7.7639 19.9999 8.50025C19.9999 9.2366 20.5968 9.83352 21.3331 9.83352H26.857C28.2241 9.83277 29.3321 8.72468 29.3329 7.3576V1.83377C29.3329 1.09742 28.736 0.500499 27.9996 0.500499C27.2633 0.500499 26.6664 1.09742 26.6664 1.83377V4.60437C20.1107 -1.29963 10.0103 -0.771398 4.10625 5.78421C1.79576 8.34975 0.378617 11.5948 0.0671889 15.0334C-0.00130892 15.7717 0.541737 16.4258 1.28009 16.4942C1.32009 16.4979 1.36027 16.4999 1.40052 16.5C2.07631 16.5086 2.64761 16.0015 2.71917 15.3293C3.33427 8.45056 9.09378 3.17617 16 3.1671Z" fill="white"/>
<path d="M30.6006 16.5001C29.9248 16.4915 29.3535 16.9987 29.2819 17.6708C28.6457 24.9964 22.1913 30.4192 14.8656 29.7829C11.696 29.5076 8.72976 28.1064 6.50402 25.8331H10.6666C11.4029 25.8331 11.9998 25.2362 11.9998 24.4999C11.9998 23.7635 11.4029 23.1666 10.6666 23.1666H5.14275C3.77604 23.1658 2.66758 24.2732 2.66683 25.6398C2.66683 25.6407 2.66683 25.6416 2.66683 25.6425V31.1663C2.66683 31.9027 3.26375 32.4996 4.0001 32.4996C4.73645 32.4996 5.33337 31.9027 5.33337 31.1663V28.3957C11.889 34.2997 21.9894 33.7715 27.8934 27.2159C30.204 24.6504 31.6211 21.4053 31.9325 17.9667C32.001 17.2283 31.458 16.5743 30.7196 16.5058C30.6801 16.5022 30.6403 16.5002 30.6006 16.5001Z" fill="white"/>
</g>
<defs>
<clipPath id="clip0_1_2735">
<rect width="32" height="32" fill="white" transform="translate(0 0.5)"/>
</clipPath>
</defs>
</svg>
