<svg width="33" height="33" viewBox="0 0 33 33" fill="none" xmlns="http://www.w3.org/2000/svg">
<g clip-path="url(#clip0_1_2743)">
<path d="M32.2816 12.2249C32.0089 11.3568 31.464 10.5995 30.7275 10.065C29.9911 9.53049 29.1022 9.24717 28.1923 9.25695H22.3669L20.5976 3.74228C20.3194 2.87422 19.7726 2.11697 19.0362 1.5797C18.2998 1.04244 17.4118 0.75293 16.5003 0.75293C15.5887 0.75293 14.7007 1.04244 13.9643 1.5797C13.2279 2.11697 12.6812 2.87422 12.4029 3.74228L10.6336 9.25695H4.80826C3.90125 9.25824 3.01785 9.54613 2.28423 10.0795C1.55061 10.6128 1.00431 11.3644 0.723352 12.2268C0.442393 13.0892 0.44115 14.0183 0.719799 14.8815C0.998449 15.7446 1.54274 16.4976 2.27492 17.0329L7.01626 20.4996L5.21359 26.0823C4.92227 26.9481 4.91858 27.8849 5.20307 28.7531C5.48756 29.6212 6.04499 30.3741 6.79226 30.8996C7.52673 31.442 8.41678 31.7325 9.3298 31.728C10.2428 31.7234 11.1299 31.424 11.8589 30.8743L16.5003 27.4583L21.1429 30.8703C21.8761 31.4095 22.7613 31.7025 23.6714 31.7069C24.5815 31.7113 25.4696 31.4271 26.2079 30.895C26.9463 30.3629 27.4969 29.6103 27.7806 28.7456C28.0644 27.8808 28.0666 26.9484 27.7869 26.0823L25.9843 20.4996L30.7309 17.0329C31.4715 16.5043 32.0222 15.7513 32.3014 14.8854C32.5807 14.0195 32.5738 13.0866 32.2816 12.2249ZM29.1576 14.8796L23.6323 18.9183C23.4053 19.0838 23.2365 19.3168 23.1498 19.5841C23.0631 19.8513 23.063 20.139 23.1496 20.4063L25.2496 26.8996C25.3559 27.229 25.3549 27.5835 25.247 27.9123C25.1391 28.2411 24.9296 28.5272 24.6488 28.7294C24.368 28.9317 24.0303 29.0397 23.6843 29.038C23.3382 29.0362 23.0016 28.9247 22.7229 28.7196L17.2896 24.7196C17.0607 24.5515 16.7842 24.4609 16.5003 24.4609C16.2163 24.4609 15.9398 24.5515 15.7109 24.7196L10.2776 28.7196C9.99903 28.9275 9.66151 29.0413 9.31394 29.0444C8.96638 29.0476 8.62685 28.9399 8.34456 28.7372C8.06228 28.5344 7.85192 28.2469 7.74399 27.9165C7.63605 27.5861 7.63614 27.2299 7.74426 26.8996L9.85092 20.4063C9.93748 20.139 9.93742 19.8513 9.85074 19.5841C9.76406 19.3168 9.5952 19.0838 9.36826 18.9183L3.84292 14.8796C3.56466 14.6759 3.3579 14.3894 3.25218 14.0611C3.14646 13.7329 3.14718 13.3796 3.25424 13.0517C3.3613 12.7239 3.56922 12.4383 3.84831 12.2357C4.1274 12.0331 4.46338 11.9239 4.80826 11.9236H11.6083C11.8905 11.9236 12.1655 11.834 12.3937 11.6677C12.6218 11.5014 12.7912 11.267 12.8776 10.9983L14.9443 4.55695C15.0503 4.22733 15.2583 3.93987 15.5381 3.73595C15.818 3.53202 16.1553 3.42215 16.5016 3.42215C16.8479 3.42215 17.1852 3.53202 17.4651 3.73595C17.7449 3.93987 17.9528 4.22733 18.0589 4.55695L20.1256 10.9983C20.212 11.267 20.3814 11.5014 20.6095 11.6677C20.8376 11.834 21.1126 11.9236 21.3949 11.9236H28.1949C28.5398 11.9239 28.8758 12.0331 29.1549 12.2357C29.434 12.4383 29.6419 12.7239 29.7489 13.0517C29.856 13.3796 29.8567 13.7329 29.751 14.0611C29.6453 14.3894 29.4385 14.6759 29.1603 14.8796H29.1576Z" fill="white"/>
</g>
<defs>
<clipPath id="clip0_1_2743">
<rect width="32" height="32" fill="white" transform="translate(0.5 0.5)"/>
</clipPath>
</defs>
</svg>
